<svg xmlns="http://www.w3.org/2000/svg" fill="none" viewBox="0 0 160 37">
  <path fill="#fff" d="M158.5 10.5c-1.3-2.7-2-5.7-2.4-8.7 0-.6-.6-1-1.2-.9l-4.8 1a1 1 0 0 0-.8.6 32.2 32.2 0 0 1-10.8 15l.4-1a21.9 21.9 0 0 0 1.3-7.5c.1-2-.5-4-1.7-5.8a5.8 5.8 0 0 0-4.7-2.1 11.4 11.4 0 0 0-7.8 3.6v-1l-.1-1.2-.3-1c0-.5-.5-.6-1-.5l-4.3 1.7a1 1 0 0 0-.6 1.3l.2 1.6c0 1.2-.1 2.4-.4 3.5l-1.7 8.3c-.2.7-.5 1.2-.9 1.7a8.5 8.5 0 0 1-2.8 2c-.4.3-1 .4-1.5.4a1.4 1.4 0 0 1-1-.5c-.5-.5-.6-2.2-.3-3.7l3.2-15a1 1 0 0 0-1.2-1.2l-4.3.8a1 1 0 0 0-.8.8L105 16.9a5 5 0 0 1-1.2 2.4 8.5 8.5 0 0 1-2.8 2c-.4.3-1 .4-1.5.4a1.4 1.4 0 0 1-1-.5 2 2 0 0 1-.5-1.4 14 14 0 0 1 .5-3.3l3-14.3a1 1 0 0 0-1.1-1.2l-4.5.9a1 1 0 0 0-.8.8l-3.2 15-.2 1-.2.5a8.5 8.5 0 0 1-2.7 2c-.5.3-1 .4-1.6.4a1.4 1.4 0 0 1-1-.5c-.3-.4-.5-.8-.4-1.3v-1.5l.4-1.9 1.6-7.8a108 108 0 0 1 1.4-5.2c.1-.4 0-1-.5-1.1-1-.5-2-.9-3-1C84 1 82.3 1 80.6 1a13.5 13.5 0 0 0-10 4c-1 1-1.9 1.8-3 2.6-1.2.8-2.5 1.5-4 2v-.2a8 8 0 0 0-2.3-6.2A9.3 9.3 0 0 0 54.8 1a12.5 12.5 0 0 0-10.2 4.9 17 17 0 0 0-3 5.3 20.4 20.4 0 0 0-.8 8 9 9 0 0 1-1.1 1c-.8.7-1.7 1-2.6 1a2 2 0 0 1-1.3-.2 1.4 1.4 0 0 1-.3-1.1l.3-2.1 1.5-7.3.3-1.2a17.8 17.8 0 0 0 .4-3.2 4.8 4.8 0 0 0-1.5-3.9c-1-.8-2.2-1.2-3.5-1.1a10 10 0 0 0-4 .8c-1.4.7-2.7 1.6-3.8 2.8a3.7 3.7 0 0 0-1.4-2.8c-1-.6-2-.9-3.1-.8A10.8 10.8 0 0 0 13 4.6c-.2-.9-.7-1.6-1.4-2.2a6.5 6.5 0 0 0-4.4-1.3C6 1 4.5 1.4 3.3 2l-1 .5a1.5 1.5 0 0 0-.7 1l-.8 4c-.1.3.3.5.5.3l.8-.7 1.5-.9C4 6 4.6 6 5 6a1.4 1.4 0 0 1 1 .5c.4.4.5.9.5 1.4l-.1 1.5v.2L3.3 24.8a1 1 0 0 0 1 1.2h4a1 1 0 0 0 1-.8L12.3 12a7.7 7.7 0 0 1 3-4.7c.7-.6 1.6-1 2.6-1 .4 0 .8.1 1.1.3a1.3 1.3 0 0 1 .4 1c0 .9-.1 1.7-.3 2.5l-3.1 14.8a1 1 0 0 0 1 1.2h3.9a1 1 0 0 0 1-.8l2.8-13.5a7.4 7.4 0 0 1 2.8-4.4c.7-.6 1.6-1 2.6-1 .4 0 .8 0 1.2.3a1.4 1.4 0 0 1 .4 1c0 .8-.2 1.5-.3 2.2l-.8 3.5-1 5a21.4 21.4 0 0 0-.4 3.2 4.8 4.8 0 0 0 1.4 3.9c1 .8 2.2 1.2 3.5 1.2a10 10 0 0 0 4-.8c1.4-.7 2.8-1.6 4-2.8.2.4.6.8 1 1.2a8.8 8.8 0 0 0 6.4 2.2A12.8 12.8 0 0 0 60.2 21a16.9 16.9 0 0 0 3.1-7.8l3-1c-.6 2-.9 4-.9 6 0 3 .6 5 1.8 6.3a7 7 0 0 0 5.4 1.8 10.2 10.2 0 0 0 6.1-2.6 18 18 0 0 0-1 3.4l-1.6 7.6a1 1 0 0 0 1.2 1.2l4.3-1c.4-.1.7-.4.7-.8l1.7-8 1 .1c1.4 0 2.8-.3 4-.9 1-.5 2-1.1 2.8-1.8.3.6.7 1.1 1.2 1.5 1.3 1 2.8 1.5 4.4 1.4 1.4 0 2.7-.3 4-1 1.1-.6 2.3-1.4 3.3-2.3.3.7.7 1.3 1.3 1.9 1.3 1 2.8 1.4 4.4 1.3 1.4 0 2.7-.3 4-1l1.8-1L114 35a1 1 0 0 0 1.2 1.2l4.3-1.1c.4-.1.7-.4.8-.8L125 12a7.5 7.5 0 0 1 3.3-4.8c.8-.5 1.7-.8 2.6-.9a2 2 0 0 1 1.8.8c.4.6.6 1.4.5 2.2 0 .8 0 1.6-.2 2.4a27.2 27.2 0 0 1-1.4 5.6l-1.2 2.4c-.4.6-1 1-1.5 1.5l-1 .4h-.1c-.6.2-1.3.2-1.9.1-.3 0-.5.1-.6.4l-.8 3.7c0 .3.2.6.4.6a14.3 14.3 0 0 0 4 0l4.2-1c8-2.7 14.7-8.4 18.6-15.9 2.9 7.3.9 9.6.5 10.3-.5.6-1.1 1-1.8 1.4-.8.4-1.7.6-2.6.5-.6 0-1 .4-1.2 1l-.5 2.6a1 1 0 0 0 .8 1.1 15 15 0 0 0 6.2-.8c1.4-.6 2.7-1.5 3.8-2.6 2.7-3.3 3.1-8.7 1.6-12.5ZM55.2 17.4c-.5 1.2-1.2 2.3-2 3.2a3.7 3.7 0 0 1-4 1 3 3 0 0 1-1-.6c-.6-.7-.9-1.7-.8-2.6 0-2.6.6-5.3 1.5-7.7 1 2.3 4 3.3 7.3 3.4a19 19 0 0 1-1 3.3Zm1.5-6.7-1.6-.2C53 10 51.8 9 51.5 8.2a1.8 1.8 0 0 1 .8-2.1c.5-.3 1-.4 1.5-.4a3 3 0 0 1 2.2.8c.6.8.9 1.8.8 2.9v1.3Zm23 7.4c-.7 1-1.5 2-2.4 2.7-.7.5-1.5.9-2.4.9a2.5 2.5 0 0 1-1.9-.8c-.6-.9-1-2-.9-3a17.1 17.1 0 0 1 .8-5.5c.2-1 .6-2 1.1-3 .4-.8 1-1.6 1.8-2.2l1.5-1 1.8-.3h1.8c.4 0 .9.1 1.3.3L79.6 18Z"/>
</svg>
